<svg data-v-423bf9ae="" xmlns="http://www.w3.org/2000/svg" viewBox="0 0 95.13879221574501 60" class="font"><!----><!----><!----><g data-v-423bf9ae="" id="1a23f289-8857-4e9a-8e0f-86b84cc87eaa" fill="white" transform="matrix(4.062288296576303,0,0,4.062288296576303,-0.568721749233589,-22.99255113876587)"><path d="M3.05 15.48L3.05 15.48Q2.62 16.13 2.49 16.63L2.49 16.63L2.49 16.63Q2.37 17.14 2.37 17.84L2.37 17.84L2.37 17.84Q2.37 18.54 2.74 18.58L2.74 18.58L2.74 18.58Q3.07 18.58 3.07 16.59L3.07 16.59L3.07 16.59Q3.07 15.90 3.05 15.48L3.05 15.48ZM3.05 14.99L3.05 14.99L3.05 14.99Q3.02 14.55 3.02 13.62L3.02 13.62L3.02 13.62Q3.00 13.62 2.82 13.80L2.82 13.80L2.82 13.80Q2.65 13.97 2.43 14.17L2.43 14.17L2.43 14.17Q2.21 14.38 1.88 14.55L1.88 14.55L1.88 14.55Q1.55 14.73 1.12 14.73L1.12 14.73L1.12 14.73Q0.69 14.73 0.41 14.46L0.41 14.46L0.41 14.46Q0.14 14.20 0.14 13.75L0.14 13.75L0.14 13.75Q0.14 12.78 1.08 11.75L1.08 11.75L1.08 11.75Q2.03 10.72 3.15 10.72L3.15 10.72L3.15 10.72Q3.50 10.72 3.72 10.88L3.72 10.88L3.72 10.88Q3.93 11.05 3.93 11.30L3.93 11.30L3.93 11.30Q3.93 11.52 3.77 11.72L3.77 11.72L3.77 11.72Q3.47 12.05 3.02 12.05L3.02 12.05L3.02 12.05Q2.86 12.05 2.86 11.96L2.86 11.96L2.86 11.96Q2.86 11.90 2.89 11.83L2.89 11.83L2.89 11.83Q2.93 11.76 2.93 11.65L2.93 11.65L2.93 11.65Q2.93 11.37 2.66 11.37L2.66 11.37L2.66 11.37Q2.23 11.37 1.93 11.75L1.93 11.75L1.93 11.75Q1.64 12.12 1.64 12.49L1.64 12.49L1.64 12.49Q1.64 12.85 1.81 13.03L1.81 13.03L1.81 13.03Q1.99 13.20 2.21 13.20L2.21 13.20L2.21 13.20Q2.44 13.20 2.73 12.99L2.73 12.99L2.73 12.99Q3.02 12.78 3.11 12.52L3.11 12.52L3.11 12.52Q3.21 12.15 3.54 12.15L3.54 12.15L3.54 12.15Q3.67 12.15 3.67 12.34L3.67 12.34L3.67 12.34Q3.67 12.53 3.58 12.86L3.58 12.86L3.58 12.86Q3.49 13.19 3.45 13.45L3.45 13.45L3.45 13.45Q3.42 13.71 3.42 14.55L3.42 14.55L3.42 14.55Q4.27 13.54 4.97 12.89L4.97 12.89L4.97 12.89Q5.12 12.74 5.28 12.74L5.28 12.74L5.28 12.74Q5.43 12.74 5.43 12.84L5.43 12.84L5.43 12.84Q5.43 12.95 5.28 13.09L5.28 13.09L5.28 13.09Q4.06 14.20 3.43 14.98L3.43 14.98L3.43 14.98Q3.46 15.99 3.46 16.62L3.46 16.62L3.46 16.62Q3.46 18.34 3.20 19.38L3.20 19.38L3.20 19.38Q2.94 20.43 2.21 20.43L2.21 20.43L2.21 20.43Q1.75 20.43 1.50 19.98L1.50 19.98L1.50 19.98Q1.25 19.54 1.25 18.79L1.25 18.79L1.25 18.79Q1.25 17.26 3.05 14.99ZM4.89 9.77L4.89 9.77L4.89 9.77Q4.68 9.53 4.68 9.18L4.68 9.18L4.68 9.18Q4.68 8.83 4.89 8.60L4.89 8.60L4.89 8.60Q5.11 8.36 5.43 8.36L5.43 8.36L5.43 8.36Q5.75 8.36 5.97 8.60L5.97 8.60L5.97 8.60Q6.19 8.83 6.19 9.18L6.19 9.18L6.19 9.18Q6.19 9.53 5.97 9.77L5.97 9.77L5.97 9.77Q5.75 10.01 5.43 10.01L5.43 10.01L5.43 10.01Q5.11 10.01 4.89 9.77ZM7.80 12.82L7.80 12.82L7.80 12.82Q7.94 12.71 8.05 12.71L8.05 12.71L8.05 12.71Q8.25 12.71 8.25 12.96L8.25 12.96L8.25 12.96Q8.25 13.31 7.38 14.01L7.38 14.01L7.38 14.01Q6.51 14.70 5.88 14.70L5.88 14.70L5.88 14.70Q5.25 14.70 4.90 14.25L4.90 14.25L4.90 14.25Q4.55 13.80 4.55 13.10L4.55 13.10L4.55 13.10Q4.55 12.39 4.79 11.73L4.79 11.73L4.79 11.73Q5.03 11.07 5.26 11.07L5.26 11.07L5.26 11.07Q5.38 11.09 5.38 11.42L5.38 11.42L5.38 11.42Q5.38 11.75 5.47 12.14L5.47 12.14L5.47 12.14Q5.57 12.53 5.90 12.89L5.90 12.89L5.90 12.89Q6.23 13.24 6.76 13.24L6.76 13.24L6.76 13.24Q7.28 13.24 7.80 12.82ZM10.16 7.71L10.16 7.71L10.16 7.71Q10.16 7.53 10.07 7.35L10.07 7.35L10.07 7.35Q9.98 7.17 9.87 7.17L9.87 7.17L9.87 7.17Q9.42 7.17 9.28 9.62L9.28 9.62L9.28 9.62Q9.21 10.58 9.17 11.56L9.17 11.56L9.17 11.56Q10.16 9.10 10.16 7.71ZM8.61 14.92L8.61 14.92Q8.12 14.85 7.80 14.61L7.80 14.61L7.80 14.61Q7.48 14.36 7.48 14.23L7.48 14.23L7.48 14.23Q7.48 14.10 7.57 13.99L7.57 13.99L7.57 13.99Q7.66 13.87 7.84 13.65L7.84 13.65L7.84 13.65Q8.27 13.16 8.33 13.08L8.33 13.08L8.33 13.08Q8.39 12.99 8.47 12.99L8.47 12.99L8.47 12.99Q8.55 12.99 8.64 13.02L8.64 13.02L8.64 13.02Q8.72 7.08 9.52 5.96L9.52 5.96L9.52 5.96Q9.73 5.66 10.01 5.66L10.01 5.66L10.01 5.66Q10.74 5.66 10.74 6.79L10.74 6.79L10.74 6.79Q10.74 7.92 10.19 9.65L10.19 9.65L10.19 9.65Q9.63 11.37 9.14 12.32L9.14 12.32L9.14 12.32Q9.13 12.70 9.13 13.27L9.13 13.27L9.11 13.37L9.11 13.37Q9.42 13.55 9.82 13.55L9.82 13.55L9.82 13.55Q10.22 13.55 10.43 13.43L10.43 13.43L10.43 13.43Q10.64 13.30 10.74 13.30L10.74 13.30L10.74 13.30Q10.84 13.30 10.84 13.40L10.84 13.40L10.84 13.40Q10.84 13.90 10.20 14.42L10.20 14.42L10.20 14.42Q9.56 14.94 9.03 14.95L9.03 14.95L9.02 15.26L9.02 15.26Q9.09 15.34 9.19 15.49L9.19 15.49L9.19 15.49Q9.30 15.64 9.48 16.16L9.48 16.16L9.48 16.16Q9.66 16.67 9.66 17.32L9.66 17.32L9.66 17.32Q9.66 17.98 9.37 18.58L9.37 18.58L9.37 18.58Q9.09 19.18 8.78 19.18L8.78 19.18L8.78 19.18Q8.51 19.18 8.50 18.98L8.50 18.98L8.50 18.98Q8.47 18.62 8.47 18.18L8.47 18.18L8.47 18.18Q8.47 17.74 8.54 16.60L8.54 16.60L8.54 16.60Q8.61 15.47 8.61 15.37L8.61 15.37L8.61 14.92ZM8.48 9.83L8.48 9.83L8.48 9.83Q8.48 9.55 8.93 9.41L8.93 9.41L8.93 9.41Q9.62 9.11 11.17 8.50L11.17 8.50L11.17 8.50Q11.45 6.37 12.01 6.37L12.01 6.37L12.01 6.37Q12.38 6.37 12.38 7.53L12.38 7.53L12.38 7.53Q12.38 7.87 12.36 8.04L12.36 8.04L12.36 8.04Q14.49 7.22 15.22 7.04L15.22 7.04L15.22 7.04Q15.95 6.86 16.38 6.86L16.38 6.86L16.38 6.86Q17.04 6.86 17.04 7.34L17.04 7.34L17.04 7.34Q17.04 7.49 16.84 7.59L16.84 7.59L16.84 7.59Q15.97 8.02 15.76 8.02L15.76 8.02L15.76 8.02Q15.72 8.02 15.62 7.96L15.62 7.96L15.62 7.96Q15.53 7.90 15.40 7.90L15.40 7.90L15.40 7.90Q15.27 7.90 14.88 7.99L14.88 7.99L14.88 7.99Q14.08 8.20 12.26 8.81L12.26 8.81L12.26 8.81Q12.10 9.90 11.77 10.37L11.77 10.37L11.77 10.37Q11.83 11.97 12.19 12.53L12.19 12.53L12.19 12.53Q12.36 12.80 12.68 12.99L12.68 12.99L12.68 12.99Q12.99 13.19 13.45 13.19L13.45 13.19L13.45 13.19Q13.92 13.19 14.36 12.77L14.36 12.77L14.36 12.77Q14.45 12.68 14.50 12.68L14.50 12.68L14.50 12.68Q14.62 12.68 14.62 12.87L14.62 12.87L14.62 12.87Q14.62 13.45 13.83 14.05L13.83 14.05L13.83 14.05Q13.05 14.64 12.33 14.64L12.33 14.64L12.33 14.64Q10.92 14.64 10.92 12.35L10.92 12.35L10.92 12.35Q10.92 10.91 11.09 9.24L11.09 9.24L11.09 9.24Q9.93 9.69 9.37 9.97L9.37 9.97L9.37 9.97Q8.82 10.25 8.72 10.25L8.72 10.25L8.72 10.25Q8.62 10.25 8.55 10.11L8.55 10.11L8.55 10.11Q8.48 9.97 8.48 9.83ZM15.36 12.52L15.36 12.52Q15.60 12.43 15.84 11.98L15.84 11.98L15.84 11.98Q16.09 11.52 16.09 11.23L16.09 11.23L16.09 11.23Q16.09 10.93 15.86 10.92L15.86 10.92L15.86 10.92Q15.53 10.92 15.39 11.22L15.39 11.22L15.39 11.22Q15.25 11.52 15.25 11.88L15.25 11.88L15.25 11.88Q15.25 12.24 15.36 12.52L15.36 12.52ZM16.56 13.43L16.56 13.43L16.56 13.43Q16.95 13.43 17.21 13.25L17.21 13.25L17.21 13.25Q17.47 13.08 17.70 12.80L17.70 12.80L17.70 12.80Q17.93 12.52 18.07 12.52L18.07 12.52L18.07 12.52Q18.20 12.52 18.20 12.64L18.20 12.64L18.20 12.64Q18.20 12.73 18.14 12.84L18.14 12.84L18.14 12.84Q17.68 13.58 17.00 14.15L17.00 14.15L17.00 14.15Q16.31 14.71 15.54 14.71L15.54 14.71L15.54 14.71Q14.77 14.71 14.43 14.34L14.43 14.34L14.43 14.34Q14.08 13.97 14.08 13.36L14.08 13.36L14.08 13.36Q14.08 12.29 14.88 11.18L14.88 11.18L14.88 11.18Q15.68 10.07 16.53 10.07L16.53 10.07L16.53 10.07Q16.98 10.07 16.98 10.43L16.98 10.43L16.98 10.43Q16.98 10.92 16.67 11.45L16.67 11.45L16.67 11.45Q16.37 11.97 15.54 12.87L15.54 12.87L15.54 12.87Q15.92 13.43 16.56 13.43ZM20.78 8.82L20.78 8.82L20.78 8.82Q20.78 10.54 21.07 11.63L21.07 11.63L21.07 11.63Q21.42 10.74 21.65 9.63L21.65 9.63L21.65 9.63Q21.88 8.51 21.88 8.05L21.88 8.05L21.88 8.05Q21.88 6.57 21.50 6.57L21.50 6.57L21.50 6.57Q21.18 6.57 20.98 7.37L20.98 7.37L20.98 7.37Q20.78 8.18 20.78 8.82ZM22.85 13.41L22.85 13.41L23.38 13.27L23.38 13.27Q23.56 13.27 23.56 13.43L23.56 13.43L23.56 13.43Q23.56 13.55 23.32 13.81L23.32 13.81L23.32 13.81Q23.09 14.07 22.64 14.35L22.64 14.35L22.64 14.35Q22.19 14.63 21.77 14.63L21.77 14.63L21.77 14.63Q20.85 14.63 20.44 13.62L20.44 13.62L20.44 13.62Q19.63 14.62 18.59 14.62L18.59 14.62L18.59 14.62Q18.06 14.62 17.82 14.23L17.82 14.23L17.82 14.23Q17.58 13.85 17.58 13.27L17.58 13.27L17.58 13.27Q17.58 12.50 18.43 11.69L18.43 11.69L18.43 11.69Q19.28 10.88 19.77 10.88L19.77 10.88L19.77 10.88Q19.89 10.88 19.94 11.03L19.94 11.03L19.94 11.03Q19.94 11.14 19.57 11.38L19.57 11.38L19.57 11.38Q19.03 11.72 19.03 12.25L19.03 12.25L19.03 12.25Q19.03 12.84 19.35 13.01L19.35 13.01L19.35 13.01Q19.59 13.15 19.79 13.15L19.79 13.15L19.79 13.15Q19.99 13.15 20.23 12.95L20.23 12.95L20.23 12.95Q20.08 12.19 20.08 11.12L20.08 11.12L20.08 11.12Q20.08 10.05 20.25 8.86L20.25 8.86L20.25 8.86Q20.43 7.66 20.82 6.68L20.82 6.68L20.82 6.68Q21.22 5.70 21.73 5.70L21.73 5.70L21.73 5.70Q22.05 5.70 22.20 6.15L22.20 6.15L22.20 6.15Q22.36 6.59 22.36 7.25L22.36 7.25L22.36 7.25Q22.36 7.91 22.09 9.43L22.09 9.43L22.09 9.43Q21.81 10.95 21.27 12.21L21.27 12.21L21.27 12.21Q21.78 13.41 22.85 13.41Z"></path></g><!----><!----></svg>